<svg xmlns="http://www.w3.org/2000/svg" viewBox="0 0 120 240" role="img" aria-labelledby="title">
  <title id="title">Akuvox access controller</title>
  <defs>
    <linearGradient id="case" x1="0" x2="1">
      <stop stop-color="#7a858e"/>
      <stop offset=".5" stop-color="#dce1e4"/>
      <stop offset="1" stop-color="#69747d"/>
    </linearGradient>
  </defs>
  <rect x="18" y="48" width="84" height="144" rx="8" fill="url(#case)" stroke="#4b5660" stroke-width="2"/>
  <rect x="27" y="60" width="66" height="44" rx="4" fill="#1b2832"/>
  <circle cx="40" cy="82" r="5" fill="#23d56d"/>
  <circle cx="57" cy="82" r="5" fill="#ffb31a"/>
  <circle cx="74" cy="82" r="5" fill="#1686ff"/>
  <path d="M30 119h60M30 132h60M30 145h60M30 158h60" stroke="#65727c" stroke-width="3"/>
  <g fill="#293640">
    <rect x="32" y="115" width="8" height="8" rx="1"/><rect x="50" y="115" width="8" height="8" rx="1"/><rect x="68" y="115" width="8" height="8" rx="1"/>
    <rect x="32" y="141" width="8" height="8" rx="1"/><rect x="50" y="141" width="8" height="8" rx="1"/><rect x="68" y="141" width="8" height="8" rx="1"/>
  </g>
</svg>
