<svg xmlns="http://www.w3.org/2000/svg" viewBox="0 0 120 240" preserveAspectRatio="xMidYMid meet" role="img" aria-labelledby="title desc">
  <title id="title">Akuvox X912 door phone</title>
  <desc id="desc">Graphite X912 door phone with dual cameras, touchscreen, touch keypad and card reader.</desc>
  <defs>
    <linearGradient id="body" x1="0" x2="1">
      <stop stop-color="#202226"/>
      <stop offset=".48" stop-color="#414449"/>
      <stop offset="1" stop-color="#17191c"/>
    </linearGradient>
    <linearGradient id="screen" y1="0" y2="1">
      <stop stop-color="#20394c"/>
      <stop offset=".38" stop-color="#07111a"/>
      <stop offset="1" stop-color="#111820"/>
    </linearGradient>
  </defs>
  <rect x="25" y="5" width="70" height="230" rx="3" fill="url(#body)" stroke="#0b0c0e" stroke-width="2"/>
  <rect x="31" y="12" width="58" height="22" rx="2" fill="#111316"/>
  <circle cx="42" cy="23" r="7" fill="#050608" stroke="#676c72" stroke-width="1.4"/>
  <circle cx="42" cy="23" r="2.5" fill="#3e8dbd"/>
  <circle cx="60" cy="23" r="5.5" fill="#07090b" stroke="#5f656a" stroke-width="1.2"/>
  <circle cx="77" cy="23" r="7" fill="#050608" stroke="#676c72" stroke-width="1.4"/>
  <circle cx="77" cy="23" r="2.5" fill="#3e8dbd"/>
  <rect x="31" y="39" width="58" height="71" rx="2" fill="url(#screen)" stroke="#07090b"/>
  <text x="60" y="53" fill="#d5dde4" font-family="Arial, sans-serif" font-size="4.5" text-anchor="middle">12:30 AM</text>
  <circle cx="60" cy="70" r="8" fill="none" stroke="#63b2de" stroke-width="2"/>
  <path d="M55 70h10M60 65v10" stroke="#63b2de" stroke-width="1.4"/>
  <circle cx="43" cy="94" r="5" fill="#219c62"/>
  <circle cx="60" cy="94" r="5" fill="#d14e50"/>
  <circle cx="77" cy="94" r="5" fill="#715ac8"/>
  <path d="M41 93c1-2 3-2 4 0M58 93h4M75 92h4v4h-4z" fill="none" stroke="#f2f5f7" stroke-width="1"/>
  <g fill="#f1f3f4" font-family="Arial, sans-serif" font-size="7" text-anchor="middle">
    <text x="42" y="128">1</text><text x="60" y="128">2</text><text x="78" y="128">3</text>
    <text x="42" y="146">4</text><text x="60" y="146">5</text><text x="78" y="146">6</text>
    <text x="42" y="164">7</text><text x="60" y="164">8</text><text x="78" y="164">9</text>
    <text x="42" y="182">*</text><text x="60" y="182">0</text><text x="78" y="182">#</text>
  </g>
  <rect x="44" y="195" width="32" height="20" rx="2" fill="#25282b" stroke="#555a5f"/>
  <path d="M54 205c3-5 9-5 12 0M57 205c2-2 4-2 6 0M60 205h.1" fill="none" stroke="#9ba7af" stroke-width="1.3" stroke-linecap="round"/>
  <text x="60" y="226" fill="#8f9295" font-family="Arial, sans-serif" font-size="5" text-anchor="middle">Akuvox</text>
</svg>
